<mxfile host="Electron" modified="2024-02-27T12:12:44.131Z" agent="Mozilla/5.0 (Macintosh; Intel Mac OS X 10_15_7) AppleWebKit/537.36 (KHTML, like Gecko) draw.io/22.1.2 Chrome/114.0.5735.289 Electron/25.9.4 Safari/537.36" etag="S16mQ5bydX1gsE5gz09y" version="22.1.2" type="device">
  <diagram name="Page-1" id="Q6GPCWiZWo3Kk-0Ly1na">
    <mxGraphModel dx="1917" dy="793" grid="1" gridSize="10" guides="1" tooltips="1" connect="1" arrows="1" fold="1" page="1" pageScale="1" pageWidth="827" pageHeight="1169" math="0" shadow="0">
      <root>
        <mxCell id="0" />
        <mxCell id="1" parent="0" />
        <mxCell id="oPnlrTEqkKn-1l4baIZ--10" value="" style="edgeStyle=orthogonalEdgeStyle;rounded=1;orthogonalLoop=1;jettySize=auto;html=1;strokeColor=#666666;" edge="1" parent="1" source="oPnlrTEqkKn-1l4baIZ--1" target="oPnlrTEqkKn-1l4baIZ--3">
          <mxGeometry relative="1" as="geometry" />
        </mxCell>
        <mxCell id="oPnlrTEqkKn-1l4baIZ--1" value="&lt;font color=&quot;#000000&quot;&gt;GitHub Event&lt;/font&gt;" style="rounded=1;whiteSpace=wrap;html=1;fontColor=#666666;" vertex="1" parent="1">
          <mxGeometry x="10" y="80" width="120" height="60" as="geometry" />
        </mxCell>
        <mxCell id="oPnlrTEqkKn-1l4baIZ--13" value="" style="edgeStyle=orthogonalEdgeStyle;rounded=1;orthogonalLoop=1;jettySize=auto;html=1;strokeColor=#666666;" edge="1" parent="1" source="oPnlrTEqkKn-1l4baIZ--2" target="oPnlrTEqkKn-1l4baIZ--6">
          <mxGeometry relative="1" as="geometry" />
        </mxCell>
        <mxCell id="oPnlrTEqkKn-1l4baIZ--2" value="&lt;font color=&quot;#000000&quot;&gt;Automated Approver&lt;/font&gt;" style="rounded=1;whiteSpace=wrap;html=1;fontColor=#666666;" vertex="1" parent="1">
          <mxGeometry x="410" y="80" width="120" height="60" as="geometry" />
        </mxCell>
        <mxCell id="oPnlrTEqkKn-1l4baIZ--11" value="" style="edgeStyle=orthogonalEdgeStyle;rounded=1;orthogonalLoop=1;jettySize=auto;html=1;strokeColor=#666666;" edge="1" parent="1" source="oPnlrTEqkKn-1l4baIZ--3" target="oPnlrTEqkKn-1l4baIZ--2">
          <mxGeometry relative="1" as="geometry" />
        </mxCell>
        <mxCell id="oPnlrTEqkKn-1l4baIZ--3" value="&lt;font color=&quot;#000000&quot;&gt;Prow&lt;/font&gt;" style="rounded=1;whiteSpace=wrap;html=1;fontColor=#666666;" vertex="1" parent="1">
          <mxGeometry x="190" y="80" width="120" height="60" as="geometry" />
        </mxCell>
        <mxCell id="oPnlrTEqkKn-1l4baIZ--14" value="" style="edgeStyle=orthogonalEdgeStyle;rounded=1;orthogonalLoop=1;jettySize=auto;html=1;strokeColor=#666666;" edge="1" parent="1" source="oPnlrTEqkKn-1l4baIZ--6" target="oPnlrTEqkKn-1l4baIZ--7">
          <mxGeometry relative="1" as="geometry" />
        </mxCell>
        <mxCell id="oPnlrTEqkKn-1l4baIZ--6" value="&lt;font color=&quot;#000000&quot;&gt;PR&lt;br&gt;adheres&lt;br&gt;to rules?&lt;/font&gt;" style="rhombus;whiteSpace=wrap;html=1;fontColor=#666666;" vertex="1" parent="1">
          <mxGeometry x="580" y="55" width="110" height="110" as="geometry" />
        </mxCell>
        <mxCell id="oPnlrTEqkKn-1l4baIZ--15" value="" style="edgeStyle=orthogonalEdgeStyle;rounded=1;orthogonalLoop=1;jettySize=auto;html=1;strokeColor=#666666;" edge="1" parent="1" source="oPnlrTEqkKn-1l4baIZ--7" target="oPnlrTEqkKn-1l4baIZ--8">
          <mxGeometry relative="1" as="geometry" />
        </mxCell>
        <mxCell id="oPnlrTEqkKn-1l4baIZ--21" value="" style="edgeStyle=orthogonalEdgeStyle;rounded=1;orthogonalLoop=1;jettySize=auto;html=1;strokeColor=#666666;" edge="1" parent="1" source="oPnlrTEqkKn-1l4baIZ--7" target="oPnlrTEqkKn-1l4baIZ--18">
          <mxGeometry relative="1" as="geometry" />
        </mxCell>
        <mxCell id="oPnlrTEqkKn-1l4baIZ--7" value="&lt;font color=&quot;#000000&quot;&gt;PR&lt;br&gt;tests &lt;br&gt;completed?&lt;/font&gt;" style="rhombus;whiteSpace=wrap;html=1;fontColor=#666666;" vertex="1" parent="1">
          <mxGeometry x="880" y="55" width="110" height="110" as="geometry" />
        </mxCell>
        <mxCell id="oPnlrTEqkKn-1l4baIZ--16" value="" style="edgeStyle=orthogonalEdgeStyle;rounded=1;orthogonalLoop=1;jettySize=auto;html=1;strokeColor=#666666;" edge="1" parent="1" source="oPnlrTEqkKn-1l4baIZ--8" target="oPnlrTEqkKn-1l4baIZ--9">
          <mxGeometry relative="1" as="geometry" />
        </mxCell>
        <mxCell id="oPnlrTEqkKn-1l4baIZ--8" value="&lt;font color=&quot;#000000&quot;&gt;PR&lt;br&gt;statuses&lt;br&gt;successfully&lt;br&gt;finished?&lt;/font&gt;" style="rhombus;whiteSpace=wrap;html=1;fontColor=#666666;" vertex="1" parent="1">
          <mxGeometry x="1070" y="55" width="110" height="110" as="geometry" />
        </mxCell>
        <mxCell id="oPnlrTEqkKn-1l4baIZ--9" value="&lt;font color=&quot;#000000&quot; style=&quot;font-size: 12px;&quot;&gt;Approve PR&lt;/font&gt;" style="rounded=1;whiteSpace=wrap;html=1;fontColor=#666666;" vertex="1" parent="1">
          <mxGeometry x="1260" y="80" width="120" height="60" as="geometry" />
        </mxCell>
        <mxCell id="oPnlrTEqkKn-1l4baIZ--12" value="&lt;font style=&quot;font-size: 11px;&quot;&gt;dispatch event&lt;br&gt;to plugins&lt;br&gt;&lt;/font&gt;" style="text;html=1;align=center;verticalAlign=top;resizable=0;points=[];autosize=1;strokeColor=none;fillColor=none;" vertex="1" parent="1">
          <mxGeometry x="320" y="60" width="90" height="40" as="geometry" />
        </mxCell>
        <mxCell id="oPnlrTEqkKn-1l4baIZ--25" style="edgeStyle=orthogonalEdgeStyle;rounded=1;orthogonalLoop=1;jettySize=auto;html=1;strokeColor=#666666;" edge="1" parent="1" source="oPnlrTEqkKn-1l4baIZ--17">
          <mxGeometry relative="1" as="geometry">
            <mxPoint x="750" y="110" as="targetPoint" />
          </mxGeometry>
        </mxCell>
        <mxCell id="oPnlrTEqkKn-1l4baIZ--17" value="&lt;font color=&quot;#000000&quot;&gt;Sleep-wait &lt;br&gt;for tests&lt;/font&gt;" style="rounded=1;whiteSpace=wrap;html=1;fontColor=#666666;" vertex="1" parent="1">
          <mxGeometry x="690" y="265" width="120" height="60" as="geometry" />
        </mxCell>
        <mxCell id="oPnlrTEqkKn-1l4baIZ--23" value="" style="edgeStyle=orthogonalEdgeStyle;rounded=1;orthogonalLoop=1;jettySize=auto;html=1;strokeColor=#666666;" edge="1" parent="1" source="oPnlrTEqkKn-1l4baIZ--18" target="oPnlrTEqkKn-1l4baIZ--17">
          <mxGeometry relative="1" as="geometry" />
        </mxCell>
        <mxCell id="oPnlrTEqkKn-1l4baIZ--24" value="" style="edgeStyle=orthogonalEdgeStyle;rounded=1;orthogonalLoop=1;jettySize=auto;html=1;strokeColor=#666666;" edge="1" parent="1" source="oPnlrTEqkKn-1l4baIZ--18" target="oPnlrTEqkKn-1l4baIZ--19">
          <mxGeometry relative="1" as="geometry">
            <Array as="points">
              <mxPoint x="935" y="410" />
              <mxPoint x="935" y="410" />
            </Array>
          </mxGeometry>
        </mxCell>
        <mxCell id="oPnlrTEqkKn-1l4baIZ--18" value="&lt;font color=&quot;#000000&quot;&gt;Hit &lt;br&gt;timeout &lt;br&gt;limit?&lt;/font&gt;" style="rhombus;whiteSpace=wrap;html=1;fontColor=#666666;" vertex="1" parent="1">
          <mxGeometry x="880" y="240" width="110" height="110" as="geometry" />
        </mxCell>
        <mxCell id="oPnlrTEqkKn-1l4baIZ--19" value="&lt;font color=&quot;#000000&quot;&gt;Finish&lt;/font&gt;" style="rounded=1;whiteSpace=wrap;html=1;fontColor=#666666;" vertex="1" parent="1">
          <mxGeometry x="580" y="430" width="600" height="50" as="geometry" />
        </mxCell>
        <mxCell id="oPnlrTEqkKn-1l4baIZ--20" style="edgeStyle=orthogonalEdgeStyle;rounded=1;orthogonalLoop=1;jettySize=auto;html=1;entryX=0.907;entryY=-0.02;entryDx=0;entryDy=0;entryPerimeter=0;strokeColor=#666666;" edge="1" parent="1" source="oPnlrTEqkKn-1l4baIZ--8" target="oPnlrTEqkKn-1l4baIZ--19">
          <mxGeometry relative="1" as="geometry" />
        </mxCell>
        <mxCell id="oPnlrTEqkKn-1l4baIZ--26" value="&lt;font style=&quot;font-size: 11px;&quot;&gt;yes&lt;/font&gt;" style="text;html=1;align=center;verticalAlign=middle;resizable=0;points=[];autosize=1;strokeColor=none;fillColor=none;" vertex="1" parent="1">
          <mxGeometry x="730" y="88" width="40" height="30" as="geometry" />
        </mxCell>
        <mxCell id="oPnlrTEqkKn-1l4baIZ--27" value="&lt;font style=&quot;font-size: 11px;&quot;&gt;yes&lt;/font&gt;" style="text;html=1;align=center;verticalAlign=middle;resizable=0;points=[];autosize=1;strokeColor=none;fillColor=none;" vertex="1" parent="1">
          <mxGeometry x="1010" y="88" width="40" height="30" as="geometry" />
        </mxCell>
        <mxCell id="oPnlrTEqkKn-1l4baIZ--28" value="&lt;font style=&quot;font-size: 11px;&quot;&gt;yes&lt;/font&gt;" style="text;html=1;align=center;verticalAlign=middle;resizable=0;points=[];autosize=1;strokeColor=none;fillColor=none;" vertex="1" parent="1">
          <mxGeometry x="1200" y="88" width="40" height="30" as="geometry" />
        </mxCell>
        <mxCell id="oPnlrTEqkKn-1l4baIZ--32" value="&lt;font style=&quot;font-size: 11px;&quot;&gt;no&lt;/font&gt;" style="text;html=1;align=center;verticalAlign=middle;resizable=0;points=[];autosize=1;strokeColor=none;fillColor=none;" vertex="1" parent="1">
          <mxGeometry x="830" y="268" width="40" height="30" as="geometry" />
        </mxCell>
        <mxCell id="oPnlrTEqkKn-1l4baIZ--33" value="&lt;font style=&quot;font-size: 11px;&quot;&gt;no&lt;/font&gt;" style="text;html=1;align=center;verticalAlign=middle;resizable=0;points=[];autosize=1;strokeColor=none;fillColor=none;" vertex="1" parent="1">
          <mxGeometry x="930" y="188" width="40" height="30" as="geometry" />
        </mxCell>
        <mxCell id="oPnlrTEqkKn-1l4baIZ--34" value="&lt;font style=&quot;font-size: 11px;&quot;&gt;no&lt;/font&gt;" style="text;html=1;align=center;verticalAlign=middle;resizable=0;points=[];autosize=1;strokeColor=none;fillColor=none;" vertex="1" parent="1">
          <mxGeometry x="1120" y="188" width="40" height="30" as="geometry" />
        </mxCell>
        <mxCell id="oPnlrTEqkKn-1l4baIZ--35" value="&lt;font style=&quot;font-size: 11px;&quot;&gt;yes&lt;/font&gt;" style="text;html=1;align=center;verticalAlign=middle;resizable=0;points=[];autosize=1;strokeColor=none;fillColor=none;" vertex="1" parent="1">
          <mxGeometry x="930" y="368" width="40" height="30" as="geometry" />
        </mxCell>
        <mxCell id="oPnlrTEqkKn-1l4baIZ--39" style="edgeStyle=orthogonalEdgeStyle;rounded=1;orthogonalLoop=1;jettySize=auto;html=1;entryX=0.093;entryY=0.02;entryDx=0;entryDy=0;entryPerimeter=0;strokeColor=#666666;" edge="1" parent="1" source="oPnlrTEqkKn-1l4baIZ--6" target="oPnlrTEqkKn-1l4baIZ--19">
          <mxGeometry relative="1" as="geometry" />
        </mxCell>
        <mxCell id="oPnlrTEqkKn-1l4baIZ--40" value="&lt;font style=&quot;font-size: 11px;&quot;&gt;no&lt;/font&gt;" style="text;html=1;align=center;verticalAlign=middle;resizable=0;points=[];autosize=1;strokeColor=none;fillColor=none;" vertex="1" parent="1">
          <mxGeometry x="630" y="198" width="40" height="30" as="geometry" />
        </mxCell>
      </root>
    </mxGraphModel>
  </diagram>
</mxfile>
